<mxfile host="Electron" modified="2024-09-28T19:11:00.366Z" agent="Mozilla/5.0 (Windows NT 10.0; Win64; x64) AppleWebKit/537.36 (KHTML, like Gecko) draw.io/21.1.2 Chrome/106.0.5249.199 Electron/21.4.3 Safari/537.36" etag="zdam6ClmXRTF0cYfLbN9" version="21.1.2" type="device">
  <diagram name="Page-1" id="G1Ihvoxtrqhs-CQGnWPi">
    <mxGraphModel dx="1098" dy="828" grid="1" gridSize="10" guides="1" tooltips="1" connect="1" arrows="1" fold="1" page="1" pageScale="1" pageWidth="850" pageHeight="1100" math="0" shadow="0">
      <root>
        <mxCell id="0" />
        <mxCell id="1" parent="0" />
        <mxCell id="_aXrcKMIPECLwmllo1DJ-1" value="" style="rounded=0;whiteSpace=wrap;html=1;" vertex="1" parent="1">
          <mxGeometry x="120" y="80" width="600" height="530" as="geometry" />
        </mxCell>
        <mxCell id="_aXrcKMIPECLwmllo1DJ-2" value="Checkers_game" style="text;strokeColor=none;fillColor=none;html=1;fontSize=24;fontStyle=1;verticalAlign=middle;align=center;" vertex="1" parent="1">
          <mxGeometry x="370" y="90" width="100" height="40" as="geometry" />
        </mxCell>
        <mxCell id="_aXrcKMIPECLwmllo1DJ-3" value="" style="rounded=0;whiteSpace=wrap;html=1;" vertex="1" parent="1">
          <mxGeometry x="170" y="150" width="500" height="410" as="geometry" />
        </mxCell>
        <mxCell id="_aXrcKMIPECLwmllo1DJ-4" style="edgeStyle=orthogonalEdgeStyle;rounded=0;orthogonalLoop=1;jettySize=auto;html=1;exitX=0.5;exitY=1;exitDx=0;exitDy=0;" edge="1" parent="1" source="_aXrcKMIPECLwmllo1DJ-1" target="_aXrcKMIPECLwmllo1DJ-1">
          <mxGeometry relative="1" as="geometry" />
        </mxCell>
        <mxCell id="_aXrcKMIPECLwmllo1DJ-5" value="Game_board" style="text;strokeColor=none;fillColor=none;html=1;fontSize=24;fontStyle=1;verticalAlign=middle;align=center;" vertex="1" parent="1">
          <mxGeometry x="375" y="160" width="100" height="40" as="geometry" />
        </mxCell>
        <mxCell id="_aXrcKMIPECLwmllo1DJ-6" value="&lt;b&gt;&lt;font style=&quot;font-size: 20px;&quot;&gt;Tile&lt;br&gt;(8x8)&lt;br&gt;&lt;/font&gt;&lt;/b&gt;" style="whiteSpace=wrap;html=1;aspect=fixed;" vertex="1" parent="1">
          <mxGeometry x="200" y="210" width="80" height="80" as="geometry" />
        </mxCell>
        <mxCell id="_aXrcKMIPECLwmllo1DJ-7" value="&lt;b&gt;&lt;font style=&quot;font-size: 20px;&quot;&gt;Piece&lt;br&gt;(24)&lt;br&gt;&lt;/font&gt;&lt;/b&gt;" style="whiteSpace=wrap;html=1;aspect=fixed;" vertex="1" parent="1">
          <mxGeometry x="295" y="300" width="80" height="80" as="geometry" />
        </mxCell>
      </root>
    </mxGraphModel>
  </diagram>
</mxfile>
